# xmcd
#
# Track frame offsets:
#	150
#	16343
#	34248
#	50443
#	66562
#	88778
#	111636
#	139980
#	161245
#	177407
#	200755
#	223631
#	236752
#	253127
#	291604
#	309035
#
# Disc length: 4281 seconds
#
# Revision: 0
# Processed by: cddbd v1.5.1PL2 Copyright (c) Steve Scherf et al.
# Submitted via: dBpowerAMP V4.0
#
DISCID=0510b710
DTITLE=black eyed peas - elephunk
DYEAR=1900
DGENRE=funk
TTITLE0=hands up
TTITLE1=labor (its a holiday)
TTITLE2=get retarded
TTITLE3=hey mama
TTITLE4=shut up
TTITLE5=smells like funk
TTITLE6=latin girls
TTITLE7=sexy
TTITLE8=fly away
TTITLE9=the boogie that b
TTITLE10=the elephunk theme
TTITLE11=the apl song
TTITLE12=anxiety
TTITLE13=where is the love
TTITLE14=rock my shit (uk bonus track)
TTITLE15=what's goin down
EXTD=
EXTT0=
EXTT1=
EXTT2=
EXTT3=
EXTT4=
EXTT5=
EXTT6=
EXTT7=
EXTT8=
EXTT9=
EXTT10=
EXTT11=
EXTT12=
EXTT13=
EXTT14=
EXTT15=
PLAYORDER=
